<?xml version="1.0" encoding="UTF-8"?>
<svg width="329px" height="188px" viewBox="0 0 329 188" version="1.1" xmlns="http://www.w3.org/2000/svg" xmlns:xlink="http://www.w3.org/1999/xlink">
    <!-- Generator: Sketch 54.1 (76490) - https://sketchapp.com -->
    <title>IMG Footer</title>
    <desc>Created with Sketch.</desc>
    <g id="app-Mobile" stroke="none" stroke-width="1" fill="none" fill-rule="evenodd">
        <g id="m-01" transform="translate(-23.000000, -544.000000)">
            <g id="Footer" transform="translate(0.000000, 546.000000)">
                <g id="IMG-Footer" transform="translate(23.000000, 0.000000)">
                    <path d="M201.992088,32.9129762 L199.289981,28.2822162 L199.094103,22.9401795 C198.997779,20.2885025 197.479229,17.889511 195.111259,16.6481156 L191.364471,14.6585302 L189.244975,11.0623546 C187.90482,8.76562298 185.429395,7.35122203 182.750879,7.35177789 L177.351688,7.35177789 L172.58031,4.86479615 C170.213336,3.62226196 167.356815,3.72464896 165.086735,5.13339018 L161.490623,7.36669978 L157.251631,7.36669978 C154.576218,7.3630612 152.101511,8.77136504 150.757534,11.0623546 L148.055428,15.6931147 L143.48495,18.5332478 C141.217485,19.9469314 139.878806,22.4469012 139.969198,25.0988796 L140.124895,29.2969048 L138.005399,32.9328721 C136.664867,35.2302487 136.664867,38.061623 138.005399,40.3589996 L140.702483,44.9897596 L140.898361,50.3317964 C140.997745,52.9839032 142.517776,55.3822101 144.886228,56.6238602 L148.633016,58.5885757 L150.752512,62.224543 C152.092149,64.5224386 154.567334,65.9385982 157.246608,65.9400938 L161.721658,65.9400938 L161.721658,77.9571895 C161.702008,78.3600564 161.929933,78.7348022 162.298715,78.905964 C162.667496,79.0771258 163.104139,79.0108238 163.404197,78.7381018 L169.762686,73.4855964 C170.147468,73.165493 170.708867,73.165493 171.093649,73.4855964 L177.120653,78.6585184 C177.418001,78.9360762 177.85549,79.0075957 178.227137,78.8394038 C178.598785,78.671212 178.83052,78.2968309 178.813236,77.892528 L178.813236,65.9201979 L182.750879,65.9201979 C185.430153,65.9187023 187.905338,64.5025428 189.244975,62.2046472 L191.942059,57.5738872 L196.517559,54.733754 C198.788909,53.3260112 200.129169,50.8249867 200.033311,48.1730962 L199.877614,43.975071 L201.99711,40.3391037 C203.336089,38.040838 203.334174,35.2094635 201.992088,32.9129762 Z" id="Path" fill="#6534FF" fill-rule="nonzero" opacity="0.32"></path>
                    <path d="M181.35211,76.6638079 L175.341785,71.4190042 C174.963629,71.0845009 174.39767,71.0845009 174.019514,71.4190042 L167.673613,76.7394541 C167.374715,77.0116148 166.942943,77.0769293 166.577814,76.9052164 C166.212686,76.7335036 165.985304,76.3582014 166.000739,75.9527336 L166.000739,62.0086161 C166.000739,61.4515728 166.449225,61 167.00246,61 L181.99822,61 C182.551455,61 182.99994,61.4515728 182.99994,62.0086161 L182.99994,75.8821304 C183.004198,76.2766116 182.779648,76.6373818 182.425207,76.8055174 C182.070765,76.973653 181.651503,76.9182866 181.35211,76.6638079 L181.35211,76.6638079 Z" id="Path" fill="#52D2BC" fill-rule="nonzero"></path>
                    <ellipse id="Oval" fill="#6534FF" fill-rule="nonzero" opacity="0.32" cx="174.5" cy="59.5" rx="9.5" ry="8.5"></ellipse>
                    <path d="M205.994739,30.255983 L203.297781,25.5797778 L203.111957,20.1744868 C203.001242,17.4925404 201.4696,15.073531 199.094143,13.8289265 L195.36762,11.8176555 L193.248223,8.14205758 C191.910167,5.81759719 189.434136,4.38544559 186.754431,4.38600885 L181.355493,4.38600885 L176.584339,1.87192001 C174.216588,0.617360213 171.36018,0.722780666 169.091115,2.14846978 L165.500194,4.40109338 L161.2614,4.40109338 C158.582117,4.40700109 156.107582,5.83718111 154.762585,8.15714212 L152.065627,12.823291 L147.490341,15.6943805 C145.215141,17.1161706 143.873929,19.648289 143.974754,22.331575 L144.125422,26.5703288 L142.006025,30.2459267 C140.664658,32.5698995 140.664658,35.4340514 142.006025,37.7580242 L144.708005,42.4392576 L144.903873,47.8395204 C145.001219,50.519784 146.519403,52.944452 148.886532,54.2001652 L152.633144,56.1862954 L154.752541,59.8618933 C156.097537,62.1818543 158.572072,63.6120343 161.251355,63.617942 L166.650293,63.617942 L171.416425,66.1320308 C173.787155,67.3812393 176.642173,67.2759407 178.914671,65.8554811 L182.520659,63.6078856 L186.759453,63.6078856 C189.439158,63.6084489 191.915189,62.1762973 193.253246,59.8518369 L195.955226,55.1706035 L200.525489,52.299514 C202.7999,50.8769873 204.14085,48.3453643 204.041077,45.6623195 L203.885387,41.4235657 L206.004784,37.7479678 C207.335317,35.4273171 207.331491,32.5730493 205.994739,30.255983 L205.994739,30.255983 Z" id="Path" fill="#6535FF" fill-rule="nonzero"></path>
                    <path d="M202,19.1713284 C201.900782,16.4930799 200.3833,14.0711329 198.01882,12.8172439 L194.278316,10.8080472 L192.162374,7.13624029 C190.824984,4.81569442 188.35395,3.3855758 185.679169,3.38406548 L180.289032,3.38406548 L175.525656,0.872569626 C173.162244,-0.382790997 170.309382,-0.277438265 168.044648,1.14883417 L164.459581,3.39913446 L160.222683,3.39913446 C157.547902,3.40064477 155.076867,4.8307634 153.739477,7.15130926 L151.046916,11.8277145 L146.479089,14.6958428 C144.211548,16.1174618 142.873536,18.6431388 142.969233,21.3211689 L143.119655,25.5907118 L141.003713,29.2625188 C139.665429,31.5825405 139.665429,34.4418236 141.003713,36.7618454 L143.701288,41.4382507 L143.896837,46.8329438 C143.991974,49.5110738 145.508272,51.9341843 147.873003,53.1870283 L151.613507,55.196225 L153.729449,58.8680319 C155.067356,61.1874024 157.538631,62.6157451 160.212655,62.6151837 L165.602791,62.6151837 L170.366167,65.1266796 C172.729171,66.3814614 175.580903,66.2780652 177.847175,64.855438" id="Path" stroke="#62BCFA" stroke-width="2.55" stroke-linecap="round" stroke-linejoin="round"></path>
                    <path d="M203.276243,26.4802454 L203.088613,21.1486213 C202.976822,18.5032264 201.430294,16.1171848 199.031752,14.8895427 L195.269013,12.9056826 L193.129018,9.2801782 C191.777958,6.98739712 189.277863,5.57476385 186.572116,5.57531943 L181.120708,5.57531943 L180,5 C180.294122,7.20208473 180.106493,9.46368526 180.14199,11.7004875 C180.18763,14.4332548 180.679524,17.3544889 182.59132,19.3482683 C183.549754,20.3401983 184.792168,21.039509 185.872307,21.9124075 C188.973057,24.4639746 190.571947,28.3575631 190.137083,32.2979152 C189.721254,35.7696704 187.733392,38.9488062 187.601544,42.4304807 C187.479838,46.0956623 189.452487,49.5674175 189.553909,53.2325991 C189.611282,55.4941561 188.958181,57.7185295 187.682681,59.6057497 C186.63804,61.1432413 185.197854,62.4277907 184.229278,63.9999998 L186.551831,63.9999998 C189.257579,64.0005554 191.757674,62.5879222 193.108734,60.2951411 L195.836973,55.6777067 L200.451653,52.8457463 C202.748168,51.4426068 204.102149,48.9454864 204.001407,46.299008 L203.844204,42.1180228 L205.984198,38.4925184 C207.338601,36.2002183 207.338601,33.375101 205.984198,31.0828009 L203.276243,26.4802454 Z" id="Path" fill="#3E1EC4" fill-rule="nonzero" opacity="0.32"></path>
                    <ellipse id="Oval" fill="#6534FF" fill-rule="nonzero" opacity="0.32" cx="173" cy="54" rx="23" ry="3"></ellipse>
                    <path d="M204.714848,34.1517463 L204.714848,34.1517463 C204.052612,34.882862 203.104669,35.3012766 202.10916,35.3018765 L147.893708,35.3018765 C146.897645,35.303826 145.948687,34.8849638 145.288019,34.1517463 L145.288019,34.1517463 C144.594376,33.3839858 143.587488,32.9623261 142.544074,33.0026494 C141.500659,33.0429726 140.530509,33.5410359 139.900242,34.3599595 L139.713762,34.6078324 C139.054857,35.4539479 138.836641,36.5546772 139.12408,37.5823069 L142.36481,49.4802051 C142.93034,51.5557602 144.842236,52.9992302 147.026825,53 L202.971003,53 C205.156872,52.9997531 207.070506,51.5565302 207.638057,49.4802051 L210.878788,37.5823069 C211.161452,36.5545039 210.943651,35.4558733 210.289106,34.6078324 L210.097585,34.3599595 C209.46832,33.5412136 208.498979,33.0431431 207.456314,33.0028111 C206.413649,32.962479 205.407537,33.3841358 204.714848,34.1517463 L204.714848,34.1517463 Z" id="Path" fill="#52D2BC" fill-rule="nonzero"></path>
                    <path d="M144.230357,35.1490671 L144.230357,35.1490671 C143.542178,34.3828662 142.544999,33.9623492 141.511846,34.0026535 C140.478693,34.0429578 139.517816,34.5398605 138.892301,35.3573099 L138.702548,35.605218 C138.052902,36.4529435 137.838699,37.553047 138.123301,38.5801153 L141.334124,50.4797044 C141.892911,52.5565651 143.788097,54.0009528 145.953115,53.9999995 L201.381009,53.9999995 C203.546027,54.0009528 205.441213,52.5565651 206,50.4797044" id="Path" stroke="#FFFFFF" stroke-width="2.55" stroke-linecap="round" stroke-linejoin="round"></path>
                    <path d="M149,35.5 L168,35.5" id="Path" stroke="#FFFFFF" stroke-width="2.55" stroke-linecap="round" stroke-linejoin="round"></path>
                    <path d="M187,54.5 L175,54.5" id="Path" stroke="#BBC4EF" stroke-width="2.55" stroke-linecap="round" stroke-linejoin="round"></path>
                    <path d="M167,57.5 L171,57.5" id="Path" stroke="#FFFFFF" stroke-width="2.55" stroke-linecap="round" stroke-linejoin="round"></path>
                    <path d="M181.5,69 L181.5,74" id="Path" stroke="#FFFFFF" stroke-width="2.55" stroke-linecap="round" stroke-linejoin="round"></path>
                    <path d="M154,14 L165,7" id="Path" stroke="#FFFFFF" stroke-width="2.55" stroke-linecap="round" stroke-linejoin="round"></path>
                    <rect id="Rectangle" fill="#62BCF9" fill-rule="nonzero" x="1" y="114" width="27" height="6"></rect>
                    <rect id="Rectangle" fill="#62BCF9" fill-rule="nonzero" x="1" y="104" width="27" height="6"></rect>
                    <rect id="Rectangle" fill="#BBC4EF" fill-rule="nonzero" x="1" y="93" width="48" height="8"></rect>
                    <rect id="Rectangle" fill="#6535FF" fill-rule="nonzero" x="296" y="103" width="19" height="4"></rect>
                    <rect id="Rectangle" fill="#6535FF" fill-rule="nonzero" x="217" y="123" width="19" height="4"></rect>
                    <rect id="Rectangle" fill="#6535FF" fill-rule="nonzero" x="296" y="51" width="19" height="4"></rect>
                    <rect id="Rectangle" fill="#6535FF" fill-rule="nonzero" x="296" y="43" width="33" height="5"></rect>
                    <path d="M65.945057,57.5208627 L63.8911004,46.8224248 C63.7015927,45.841582 63.0081498,45.0369045 62.0714543,44.710891 L51.8515244,41.1564757 C50.9105542,40.8249325 49.8655196,41.0284112 49.1145773,41.6893866 L40.9535893,48.8384368 C40.2057378,49.4939178 39.8617173,50.5021167 40.0512443,51.4828815 L42.1351129,62.1813195 C42.3217366,63.1635785 43.0162708,63.9695222 43.954759,64.2928533 L54.1697036,67.8472686 C55.1062737,68.1729394 56.143996,67.9697743 56.8916947,67.3143577 L65.0676386,60.1653075 C65.8063561,59.5043848 66.1405934,58.4970292 65.945057,57.5208627 L65.945057,57.5208627 Z" id="Path" fill="#3E1EC4" fill-rule="nonzero" opacity="0.32"></path>
                    <path d="M66.9487246,56.5185962 L64.888535,45.8178443 C64.6989125,44.8367893 64.0050494,44.0319378 63.0677863,43.7058537 L52.8466517,40.1506697 C51.9076762,39.8282991 50.8695732,40.0310881 50.1180229,40.6836959 L41.9570779,47.8342923 C41.2095783,48.4906163 40.8639263,49.4976385 41.0491978,50.479309 L43.1093874,61.180061 C43.2980527,62.1615864 43.9922774,62.9668573 44.9301361,63.2920515 L55.156259,66.8472355 C56.0933967,67.1729768 57.1317478,66.9697678 57.8798996,66.3142094 L66.0458328,59.1636129 C66.7941375,58.5079902 67.1383665,57.4995732 66.9487246,56.5185962 Z" id="Path" fill="#F9879A" fill-rule="nonzero"></path>
                    <path d="M64,45.7365178 C63.8093899,44.7678511 63.1119129,43.9731628 62.1697682,43.6511964 L51.9054272,40.1508354 C50.9634086,39.8292075 49.9196494,40.0298505 49.167601,40.6771308 L40.9591368,47.7374333 C40.2069347,48.3847772 39.8609128,49.3804604 40.0515424,50.3490501 L42.1224622,60.9146786 C42.3121101,61.8838098 43.0099506,62.6789122 43.952694,63" id="Path" stroke="#FFFFFF" stroke-width="0.76" stroke-linecap="round" stroke-linejoin="round"></path>
                    <polygon id="Path" fill="#FFFFFF" fill-rule="nonzero" points="61.2438729 54.0478064 62 51.8514372 60.4774584 50.1025719 60.0350983 47.8239032 57.8438729 47.0677761 56.3213313 45.313767 54.0426626 45.7561271 51.8514372 45 50.0974281 46.5225416 47.8187595 46.9649017 47.0626324 49.1561271 45.313767 50.6786687 45.7561271 52.9573374 45 55.1485628 46.5173979 56.9025719 46.9597579 59.1812405 49.1561271 59.9373676 50.6786687 61.686233 52.9521936 61.2438729 55.1485628 62 56.8974281 60.4774584 59.1760968 60.0402421 59.9322239 57.8438729 61.686233 56.3213313"></polygon>
                    <polyline id="Path" stroke="#6535FF" stroke-width="0.76" stroke-linecap="round" stroke-linejoin="round" points="60 47.7077682 57.8095075 46.9827374 56.2961696 45.3008631 54.0235978 45.7250308 51.8331053 45 50.0889193 46.459926 47.8163475 46.8840937 47.0622435 48.9852035 45.3129275 50.4451295 45.754104 52.6300863 45 54.7311961 46.5184679 56.4130703 46.9596443 58.5930949 49.1501368 59.3181258 50.6634747 61 52.9360465 60.5758323"></polyline>
                    <circle id="Oval" fill="#62BCF9" fill-rule="nonzero" cx="54" cy="53" r="3"></circle>
                    <path d="M52.7129409,57 C51.1041901,56.1221995 50.5308493,54.2219018 51.4146556,52.6969244 C52.2984619,51.171947 54.3234134,50.5675401 56,51.3282923" id="Path" stroke="#6535FF" stroke-width="0.76" stroke-linecap="round" stroke-linejoin="round"></path>
                    <path d="M62.1846081,43.7039254 L52.2292448,40.1515145 C51.8871745,40.031522 51.5256816,39.9820178 51.1652016,40.0058003 C51.054742,40.4591932 50.9992513,40.9250359 51.0000076,41.3925972 C51.0887207,42.9834007 51.5327591,44.531292 52.2972658,45.914761 C53.0608047,47.285404 53.7454447,48.7014616 54.3476139,50.1555457 C55.075075,52.1869736 55.2432679,54.3872979 54.8334784,56.5116981 C54.2941689,59.2752427 52.7928476,61.8076544 52.5839259,64.6164206 C52.5377817,65.1345355 52.5377817,65.6559399 52.5839259,66.1740548 L54.4642214,66.8473547 C55.3769915,67.1728419 56.3883433,66.9697914 57.1170415,66.3147443 L65.0706432,59.1697255 C65.7994904,58.5146142 66.1347687,57.5069838 65.9500579,56.526772 L63.9434376,45.834367 C63.7677295,44.8500515 63.0970886,44.0377149 62.1846081,43.7039254 L62.1846081,43.7039254 Z" id="Path" fill="#6534FF" fill-rule="nonzero" opacity="0.32"></path>
                    <path d="M57,66 L65,59" id="Path" stroke="#FFFFFF" stroke-width="0.76" stroke-linecap="round" stroke-linejoin="round"></path>
                    <path d="M199.999986,135.867213 C200.005509,133.788425 198.342184,132.097948 196.283069,132.089618 L196.088492,132.089618 L196.27309,132.019103 C198.127593,131.210472 199.008087,129.05892 198.259709,127.164654 C197.511331,125.270388 195.405803,124.321178 193.509101,125.022995 C194.33112,124.155412 194.695019,122.944635 194.489136,121.762188 C194.283254,120.57974 193.532176,119.566823 192.466368,119.034247 C192.306993,118.950773 192.139887,118.883292 191.967453,118.832775 C190.631524,118.400785 189.168483,118.754026 188.170709,119.749472 C188.125807,119.794803 188.085894,119.845171 188.04598,119.890502 L188.125807,119.719251 C188.892199,117.81873 188.011116,115.648537 186.143948,114.837741 C184.276781,114.026945 182.110266,114.873754 181.270713,116.742506 C181.251425,114.656197 179.5605,112.980696 177.493926,113.000168 C175.427352,113.01964 173.767699,114.726713 173.786987,116.813021 C173.786987,116.878499 173.786987,116.943977 173.786987,117.009456 C173.786987,116.949014 173.747074,116.883536 173.722128,116.823094 C173.260408,115.703091 172.2946,114.874611 171.1252,114.595423 C169.955801,114.316235 168.724714,114.620218 167.814973,115.412792 C167.682596,115.52375 167.560673,115.646837 167.450765,115.780478 C166.550347,116.836963 166.297386,118.307313 166.792197,119.608442 C165.79478,118.644496 164.352589,118.313419 163.040356,118.74715 C162.868281,118.796582 162.701231,118.862354 162.541441,118.943585 C161.465676,119.483789 160.711777,120.51205 160.514252,121.708517 C160.316728,122.904983 160.699539,124.124506 161.54361,124.987738 L161.693285,125.118694 L161.513675,125.033069 C159.631132,124.259358 157.481467,125.148855 156.67834,127.033853 C155.875213,128.918851 156.714012,131.106054 158.565087,131.953624 C156.55736,132.044309 154.981347,133.723822 155.000167,135.752661 C155.018986,137.781499 156.625878,139.430921 158.634935,139.483632 L158.829512,139.483632 L158.644914,139.54911 C157.00154,140.236729 156.067385,141.999798 156.412996,143.761497 C156.758608,145.523196 158.287894,146.793711 160.066822,146.797057 C160.525928,146.799497 160.98133,146.714041 161.408903,146.545217 C160.586913,147.413747 160.223092,148.625179 160.42892,149.80831 C160.634748,150.991441 161.385687,152.005218 162.451636,152.539002 C162.611546,152.619962 162.778571,152.685723 162.950551,152.735437 C164.286299,153.172177 165.751811,152.818339 166.747295,151.818741 L166.882002,151.672674 C166.852067,151.733115 166.822132,151.793557 166.797186,151.853998 C166.291957,153.081917 166.462437,154.487467 167.24621,155.556042 C167.403033,155.772527 167.583812,155.970241 167.785038,156.145347 L163.209987,165.810955 C163.098958,166.044201 163.133237,166.321439 163.297655,166.519974 C163.462073,166.718508 163.726272,166.801683 163.973327,166.732688 L168.882651,165.367717 C169.19223,165.281644 169.517887,165.435353 169.650981,165.730366 L171.856185,170.585836 C171.962877,170.819851 172.194718,170.969779 172.449894,170.969779 C172.705071,170.969779 172.936912,170.819851 173.043603,170.585836 L177.35423,161.484349 L181.599997,170.616057 C181.706689,170.850071 181.93853,171 182.193706,171 C182.448883,171 182.680724,170.850071 182.787415,170.616057 L185.022555,165.775697 C185.159449,165.482258 185.487299,165.332782 185.795873,165.423122 L190.69522,166.818314 C190.94169,166.888429 191.206014,166.806778 191.37142,166.609432 C191.536825,166.412086 191.572838,166.135403 191.463549,165.901617 L186.973313,156.230972 L187.083074,156.145347 C187.216719,156.0358 187.338772,155.912581 187.447282,155.777661 C188.345796,154.722256 188.598658,153.254418 188.10585,151.954734 C189.10175,152.917544 190.540997,153.25032 191.852703,152.821063 C192.025099,152.772602 192.192242,152.706794 192.351618,152.624628 C193.427382,152.084424 194.181281,151.056162 194.378806,149.859696 C194.576331,148.663229 194.193519,147.443707 193.349448,146.580475 L193.204763,146.444481 L193.379383,146.530107 C194.29387,146.916548 195.323679,146.916548 196.238166,146.530107 C197.143687,146.142234 197.860901,145.409121 198.233827,144.490205 L198.233827,144.490205 C199.006009,142.603902 198.149908,140.439861 196.303025,139.609551 C198.340753,139.590344 199.986453,137.924444 199.999986,135.867213 L199.999986,135.867213 Z" id="Path" fill="#3E1EC4" fill-rule="nonzero" opacity="0.32"></path>
                    <path d="M192.164745,165.940828 L187.289608,164.586512 C186.98249,164.497828 186.656043,164.646051 186.525075,164.933647 L184.296016,169.627305 C184.189851,169.854464 183.959156,170 183.70524,170 C183.451325,170 183.220629,169.854464 183.114465,169.627305 L177.062741,156.915314 C176.988491,156.761821 176.979778,156.585429 177.038552,156.425563 C177.097325,156.265697 177.218685,156.135686 177.375505,156.064588 L186.023661,152.060311 C186.348586,151.910876 186.735019,152.04867 186.887484,152.368332 L192.929278,165.036321 C193.047144,165.264461 193.015764,165.539807 192.849477,165.736539 C192.683191,165.93327 192.413934,166.013603 192.164745,165.940828 Z" id="Path" fill="#FCCDD3" fill-rule="nonzero"></path>
                    <path d="M165.826457,165.894638 L170.689071,164.569976 C170.995829,164.488593 171.317354,164.637134 171.450864,164.921916 L173.637309,169.633996 C173.74598,169.857699 173.974848,170 174.225967,170 C174.477085,170 174.705954,169.857699 174.814625,169.633996 L180.933703,156.978835 C181.009921,156.826083 181.020896,156.649491 180.964166,156.488671 C180.907436,156.32785 180.78775,156.196263 180.631953,156.123426 L172.039522,152.061457 C171.715674,151.911009 171.329614,152.046163 171.173848,152.364516 L165.069611,164.990349 C164.953493,165.217501 164.984525,165.49104 165.148658,165.687149 C165.312792,165.883258 165.578872,165.96471 165.826457,165.894638 L165.826457,165.894638 Z" id="Path" fill="#FCCDD3" fill-rule="nonzero"></path>
                    <path d="M180.62483,155.705437 L179.215512,155 C179.302247,156.488993 178.733589,157.937954 177.671055,158.935332 C176.840909,159.696196 175.774268,160.129536 174.905511,160.840012 C174.165382,161.522591 173.516093,162.305523 172.974939,163.167955 C172.646634,163.596362 172.378484,164.071429 172.178578,164.578829 C172.080395,164.864498 172.020307,165.162904 172,165.465665 L173.82439,169.622705 C173.930419,169.853309 174.153723,170 174.398736,170 C174.643748,170 174.867052,169.853309 174.973081,169.622705 L180.943374,156.577156 C181.013106,156.417623 181.018659,156.235561 180.958788,156.071721 C180.898917,155.90788 180.778623,155.775942 180.62483,155.705437 L180.62483,155.705437 Z" id="Path" fill="#6534FF" fill-rule="nonzero" opacity="0.32"></path>
                    <path d="M187.073978,152.364473 C186.956382,152.111831 186.690816,151.966697 186.419027,152.006535 C186.387741,152.435797 186.387741,152.866829 186.419027,153.29609 C186.480971,155.036549 186.390719,156.779169 186.149341,158.503343 C185.968017,159.308503 185.951623,160.143071 186.101182,160.954969 C186.524975,162.528912 188.157538,163.357562 189.438546,164.338212 C189.911606,164.704525 190.351593,165.113118 190.753265,165.559121 L192.198011,165.975898 C192.435918,166.044154 192.69106,165.964668 192.850719,165.772554 C193.010378,165.580441 193.04514,165.311094 192.939647,165.083506 L187.073978,152.364473 Z" id="Path" fill="#6534FF" fill-rule="nonzero" opacity="0.32"></path>
                    <path d="M185.052599,147.041711 C183.664648,147.044339 182.343991,147.657193 181.423516,148.725797 C180.181617,148.052099 178.71325,147.979536 177.414291,148.527669 C176.512549,147.561386 175.269754,147.010533 173.967675,147 C171.185152,147.167744 169.00942,149.532874 169.00003,152.400077 C168.990641,155.267281 171.150834,157.647436 173.932195,157.83446 C174.552867,157.836939 175.167866,157.712893 175.741668,157.469488 C176.673919,158.474476 177.974248,159.029538 179.324314,158.998787 C180.674379,158.968035 181.949549,158.354309 182.837642,157.307857 C183.514568,157.674913 184.267135,157.869791 185.032325,157.876171 C187.814848,157.708427 189.99058,155.343297 189.99997,152.476094 C190.009359,149.60889 187.849166,147.228735 185.067805,147.041711 L185.052599,147.041711 Z" id="Path" fill="#6534FF" fill-rule="nonzero" opacity="0.32"></path>
                    <path d="M201.999997,135.579576 C202.002763,133.52613 200.338446,131.85772 198.279068,131.849498 L198.084542,131.849498 L198.269092,131.779869 C200.107149,130.972797 200.974652,128.859737 200.23177,126.999187 C199.488888,125.138637 197.402227,124.198316 195.510816,124.871763 C196.330151,124.013495 196.691777,122.818115 196.485089,121.651243 C196.2784,120.484372 195.527987,119.484833 194.46337,118.958345 C194.302723,118.878813 194.135925,118.812286 193.964586,118.759407 C192.629052,118.331685 191.165783,118.680628 190.16884,119.664573 C190.118961,119.709334 190.084046,119.759068 190.039156,119.803829 C190.039156,119.749122 190.094022,119.694414 190.118961,119.634732 C190.885152,117.758118 190.0043,115.615222 188.137623,114.814625 C186.270946,114.014028 184.105001,114.850185 183.265669,116.69543 C183.246386,114.635365 181.555905,112.980939 179.489874,113.000166 C177.423843,113.019393 175.764626,114.704993 175.783908,116.765058 C175.783908,116.829713 175.783908,116.894368 175.783908,116.959023 C175.783908,116.899341 175.744006,116.83966 175.719067,116.775005 C175.258148,115.668281 174.29203,114.849759 173.122242,114.574904 C171.952454,114.300049 170.721461,114.602334 169.813464,115.387416 C169.681121,115.496978 169.559231,115.618517 169.449351,115.750477 C168.54917,116.793673 168.296275,118.245528 168.790956,119.53029 C167.79484,118.576721 166.352898,118.247868 165.040101,118.674859 C164.868072,118.72367 164.701065,118.788614 164.541317,118.868823 C163.465835,119.402232 162.712134,120.417559 162.514661,121.598976 C162.317188,122.780393 162.699899,123.984575 163.543749,124.836949 L163.688396,124.966259 C163.628542,124.941391 163.573676,124.906577 163.508834,124.88171 C161.632609,124.14445 159.508418,125.027249 158.712714,126.874945 C157.91701,128.722641 158.73783,130.866385 160.566008,131.715215 C158.55901,131.803751 156.982675,133.460974 157.000144,135.464059 C157.017612,137.467144 158.622611,139.096784 160.63085,139.150505 L160.830364,139.150505 L160.645813,139.21516 C158.744878,140.003296 157.839863,142.174839 158.62075,144.074209 L158.62075,144.074209 C159.384599,145.946939 161.515952,146.859954 163.404089,146.123266 C162.584422,146.981774 162.222094,148.17726 162.42773,149.344724 C162.633366,150.512189 163.382551,151.513023 164.446548,152.041658 C164.606415,152.121599 164.773397,152.186534 164.945332,152.235622 C166.279899,152.665781 167.743647,152.318641 168.741078,151.33543 C168.790956,151.285695 168.830859,151.235961 168.87575,151.186227 C168.845823,151.245908 168.815896,151.305589 168.790956,151.36527 C168.28586,152.577744 168.456295,153.965614 169.239862,155.020748 C169.446644,155.300713 169.693707,155.548738 169.973075,155.756817 C170.621695,156.240192 171.407878,156.504981 172.217603,156.512779 C173.696232,156.517825 175.038326,155.651689 175.639261,154.304573 C175.651735,155.637201 176.376269,156.861966 177.539938,157.517509 C178.703608,158.173051 180.129623,158.15978 181.280818,157.482694 C182.432014,156.805609 183.133495,155.567573 183.121021,154.234944 C183.121021,154.165316 183.121021,154.100662 183.121021,154.036007 C183.121021,154.100662 183.160924,154.160343 183.185863,154.224997 C183.763676,155.61039 185.117738,156.515718 186.622485,156.522726 C187.53675,156.524629 188.421469,156.199992 189.116405,155.607613 C189.247151,155.497965 189.367378,155.37642 189.47553,155.244552 C190.375865,154.203392 190.628867,152.752829 190.133925,151.469713 C191.130042,152.423281 192.571983,152.752135 193.884781,152.325144 C194.057229,152.277584 194.224357,152.212593 194.383565,152.13118 C195.459046,151.597771 196.212747,150.582444 196.41022,149.401027 C196.607693,148.21961 196.224982,147.015427 195.381133,146.163054 L195.236485,146.028771 L195.41106,146.113319 C195.861297,146.30166 196.344345,146.39968 196.832594,146.401779 C197.325329,146.401023 197.813215,146.304741 198.269092,146.118293 C199.185988,145.743991 199.913782,145.018299 200.289167,144.10405 L200.289167,144.10405 C201.063992,142.241492 200.207321,140.102686 198.358873,139.284788 C200.376197,139.231169 201.98726,137.59175 201.999997,135.579576 Z" id="Path" fill="#F9879A" fill-rule="nonzero"></path>
                    <path d="M199.999997,134.361995 C200.002755,132.31505 198.342871,130.651924 196.288978,130.643728 C196.224309,130.643728 196.15964,130.643728 196.09497,130.643728 L196.279029,130.579278 C198.11219,129.774761 198.977383,127.668392 198.23648,125.813734 C197.495576,123.959076 195.414473,123.021733 193.5281,123.693047 C194.345252,122.837496 194.705915,121.645902 194.499777,120.482726 C194.293639,119.319549 193.545224,118.323175 192.483443,117.798354 C192.32424,117.716833 192.157686,117.650437 191.985987,117.600047 C190.652616,117.169316 189.189514,117.517586 188.195376,118.502346 C188.150605,118.546965 188.110809,118.596542 188.071012,118.641162 C188.071012,118.586627 188.125732,118.527135 188.150605,118.467642 C188.888031,116.602759 188.005034,114.491409 186.156922,113.700515 C184.308811,112.909621 182.164586,113.725479 181.315565,115.542606 C181.226001,113.547539 179.567241,111.981465 177.563473,112.000166 C175.559704,112.018867 173.930664,113.615625 173.878605,115.612013 C173.878605,115.676463 173.878605,115.740913 173.878605,115.805363 C173.878605,115.745871 173.838808,115.681421 173.813936,115.621929 C173.353566,114.519516 172.390584,113.704047 171.224605,113.429244 C170.058626,113.154441 168.831141,113.453649 167.924062,114.233776 C167.793268,114.344292 167.671812,114.465337 167.560919,114.595687 C166.663135,115.63558 166.410914,117.082837 166.904278,118.363531 C165.909733,117.414979 164.472815,117.087437 163.163412,117.510808 C162.992529,117.56352 162.826175,117.629836 162.665956,117.709116 C161.591613,118.239231 160.838312,119.251555 160.641228,120.430047 C160.444145,121.608539 160.827288,122.809628 161.671045,123.658343 C161.716706,123.705492 161.764862,123.750174 161.815307,123.792201 C161.757053,123.761162 161.697285,123.733034 161.636223,123.70792 C159.759187,122.946361 157.61581,123.821888 156.815033,125.677281 C156.014256,127.532674 156.850601,129.685527 158.696261,130.519785 C156.635732,130.538952 154.980934,132.219214 155.000166,134.272756 C155.019398,136.326298 156.705376,137.975486 158.765905,137.956319 L158.964887,137.956319 L158.780828,138.020769 C156.884956,138.80641 155.982352,140.971076 156.761159,142.864432 L156.761159,142.864432 C157.338133,144.247095 158.691051,145.14989 160.193602,145.154884 C160.651408,145.157769 161.105568,145.073639 161.531758,144.907 C160.714274,145.762789 160.352911,146.954489 160.557999,148.118257 C160.763087,149.282024 161.510277,150.279689 162.57144,150.80665 C162.730882,150.886338 162.897418,150.951067 163.068895,151" id="Path" stroke="#FFFFFF" stroke-width="1.64" stroke-linecap="round" stroke-linejoin="round"></path>
                    <circle id="Oval" fill="#BBC4EF" fill-rule="nonzero" opacity="0.32" cx="179.5" cy="135.5" r="17.5"></circle>
                    <path d="M163,130 C164.686654,125.147061 168.72329,121.347972 173.863167,119.776107 C179.003044,118.204242 184.627729,119.048729 189,122.048743" id="Path" stroke="#BBC4EF" stroke-width="1.64" stroke-linecap="round" stroke-linejoin="round"></path>
                    <path d="M201.999996,135.777222 C202.002816,133.735524 200.30628,132.076659 198.207034,132.068483 L198.008742,132.068483 L198.196865,131.999253 C200.070505,131.196799 200.954803,129.095827 200.197539,127.245921 C199.440275,125.396016 197.313219,124.461075 195.385192,125.130669 C196.220388,124.27731 196.589015,123.08877 196.378325,121.928574 C196.167635,120.768378 195.402694,119.774557 194.317468,119.251081 C194.153711,119.172005 193.983683,119.105858 193.809028,119.053282 C192.447639,118.628006 190.956042,118.974954 189.939799,119.953269 C189.893038,119.996916 189.8489,120.043146 189.807604,120.091729 C189.807604,120.037334 189.863533,119.982939 189.888955,119.923599 C190.148319,119.315848 190.234385,118.651323 190.13809,118 C189.409419,118.794089 188.858782,119.727072 188.521251,120.739522 C188.269946,121.787152 188.099987,122.851676 188.012811,123.924092 C187.685557,126.116377 186.851105,128.207866 185.572299,130.041039 C183.492779,133.008031 180.269269,135.277779 178.932072,138.635424 C177.828757,141.414506 178.194834,144.510066 178.22534,147.486948 C178.260693,150.845839 177.848824,154.195052 177,157.451093 C177.591822,157.809979 178.275311,158.000152 178.972747,157.999986 C181.071183,158.00546 182.777639,156.35686 182.786048,154.315972 C182.786048,154.246743 182.786048,154.182458 182.786048,154.118173 C182.786048,154.182458 182.826723,154.241798 182.852145,154.306082 C183.441143,155.683549 184.821419,156.583697 186.355297,156.590666 C187.287261,156.592557 188.189107,156.269778 188.897497,155.680788 C189.030773,155.571767 189.153328,155.450918 189.263574,155.319804 C190.181338,154.284601 190.439239,152.842336 189.934714,151.56656 C190.950115,152.514674 192.419971,152.841646 193.758184,152.417098 C193.933971,152.36981 194.104334,152.305191 194.266624,152.224244 C195.362926,151.693886 196.131217,150.684368 196.332513,149.50971 C196.533809,148.335052 196.143689,147.137759 195.283504,146.290261 L195.136056,146.156747 L195.31401,146.240811 C195.772964,146.428074 196.265363,146.525534 196.763064,146.52762 C197.265338,146.526869 197.762669,146.431138 198.227371,146.245756 C199.160734,145.871721 199.901973,145.150807 200.286554,144.243037 L200.286554,144.243037 C201.076378,142.391135 200.203122,140.264566 198.318891,139.451346 C200.359395,139.382583 201.982165,137.762891 201.999996,135.777222 L201.999996,135.777222 Z" id="Path" fill="#6534FF" fill-rule="nonzero" opacity="0.1"></path>
                    <path d="M120.097875,119.847738 C118.963078,120.131756 117.763353,120.016052 116.705826,119.520601 L97.8661303,110.59869 C96.5362202,109.972022 95.5569051,108.795466 95.1926926,107.386802 L88.0668756,80.0262746 C87.8391951,79.1480326 88.2052513,78.224447 88.9764475,77.7313608 C100.202722,70.5873836 113.47452,67.2256242 126.80157,68.1502197 C127.717418,68.2138784 128.488936,68.8490268 128.716194,69.7264239 L135.842011,97.0919078 C136.210539,98.4975737 135.927014,99.9920761 135.068121,101.171204 L122.91202,117.949353 C122.22933,118.888707 121.232974,119.560835 120.097875,119.847738 L120.097875,119.847738 Z" id="Path" fill="#6534FF" fill-rule="nonzero"></path>
                    <polygon id="Path" stroke="#6535FF" stroke-width="0.3" fill="#FCCDD3" fill-rule="nonzero" stroke-linecap="round" stroke-linejoin="round" points="117.404006 98.6493446 110 96.2289326 118.617536 104 123 93"></polygon>
                    <polygon id="Path" stroke="#6535FF" stroke-width="0.3" fill="#FCCDD3" fill-rule="nonzero" stroke-linecap="round" stroke-linejoin="round" points="110.014891 94.8294837 110.049637 94.8243886 117.435662 97 122.96029 91.6756114 122.995036 91.6705163 122.975181 91.6654212 123 91.6399457 113.966018 82 110 94.8091033 110.034746 94.8192935"></polygon>
                    <path d="M129.361331,68.1509766 L129.361331,68.1509766 C116.133851,67.2251147 102.960266,70.5759036 91.8210599,77.6995939 L91.8210599,77.6995939 C90.3868506,78.6254461 89.7040798,80.3505093 90.1210663,81.9947338 L96.9711879,108.401154 C97.4674332,110.30491 98.7868314,111.894806 100.576779,112.745949 L118.689985,121.34616 C121.632176,122.74204 125.161861,121.84368 127.05957,119.215969 L138.743891,103.038436 C139.901745,101.440422 140.283813,99.4160715 139.786955,97.5118576 L132.936834,71.105437 C132.511513,69.4612069 131.071179,68.2710498 129.361331,68.1509766 L129.361331,68.1509766 Z M137.916461,97.9885436 C138.272812,99.3450595 138.000794,100.788246 137.174281,101.926169 L125.489959,118.103702 C124.138822,119.980015 121.620059,120.621335 119.52243,119.623138 L101.409224,111.022928 C100.132537,110.417147 99.1923749,109.282578 98.8416823,107.924468 L91.9915607,81.5180477 C91.769477,80.6695967 92.1236004,79.7759514 92.8691385,79.3034438 C103.659452,72.4096291 116.416128,69.1655396 129.225933,70.0577208 C130.107508,70.1189654 130.849737,70.7337508 131.066339,71.582123 L137.916461,97.9885436 Z" id="Shape" fill="#FCCDD3" fill-rule="nonzero"></path>
                    <path d="M139.794809,97.5136697 L132.897935,71.1299975 C132.479,69.477412 131.026695,68.2765174 129.29803,68.1532763 L129.29803,68.1532763 C123.844618,67.7709568 118.363674,68.1046421 113,69.1455167 C115.297285,71.0863894 117.163688,73.4708799 118.483166,76.1507339 C120.134175,79.3606316 121.194456,82.8235506 122.239589,86.2666248 C122.881493,88.099397 123.295153,90.0018106 123.471535,91.9323175 C123.703787,96.6256146 121.164162,101.016278 120.613826,105.684769 C120.169517,109.48505 121.073281,113.359749 122.6738,116.852435 C123.337629,118.283414 124.098362,119.669044 124.950879,121 C125.744392,120.52981 126.431666,119.90513 126.970461,119.164355 L138.734529,103.000759 C139.893218,101.414474 140.28115,99.4068741 139.794809,97.5136697 L139.794809,97.5136697 Z" id="Path" fill="#BBC4EF" fill-rule="nonzero" opacity="0.44"></path>
                    <path d="M103.517979,104 L93.0182288,103.813602 C92.2562064,104.007584 91.4821903,103.543261 91.2882699,102.775819 L90.0432995,97.7380353 C89.9509571,97.3699296 90.0076179,96.9799363 90.2008032,96.6539453 C90.3939884,96.3279543 90.7078537,96.0927023 91.073275,96 L101.573026,96.186398 C101.80851,96.1260179 102.057102,96.2122204 102.205832,96.4058318 C102.354562,96.5994432 102.375059,96.8635316 102.258009,97.0780856 L99.0230862,99.1234257 C98.8730755,99.4049494 98.9621854,99.7553314 99.2280813,99.929471 L103.702975,102.871537 C103.918097,103.00111 104.032665,103.250082 103.99182,103.499235 C103.950975,103.748389 103.76303,103.947013 103.517979,104 L103.517979,104 Z" id="Path" fill="#070707" fill-rule="nonzero" opacity="0.18"></path>
                    <path d="M129.481117,89.2084739 L138.885433,84.0435108 C139.262375,83.9507178 139.661729,84.0076551 139.995544,84.2017832 C140.32936,84.3959113 140.570259,84.7113084 140.665186,85.0785131 L141.954862,90.0776749 C142.1535,90.8434164 141.678032,91.6212101 140.892169,91.8160769 L131.482694,96.98104 C131.239729,97.0412582 130.983241,96.9552868 130.829787,96.7621942 C130.676332,96.5691017 130.655184,96.3057209 130.775952,96.0917419 L133.40689,91.3789642 C133.565882,91.0982602 133.475933,90.7456498 133.200542,90.5700546 L129.290245,90.3138162 C129.077964,90.1828743 128.966994,89.9407282 129.008669,89.6993906 C129.050343,89.4580529 129.236536,89.264582 129.481117,89.2084739 L129.481117,89.2084739 Z" id="Path" fill="#070707" fill-rule="nonzero" opacity="0.18"></path>
                    <path d="M102.527119,101.448915 L92.7028839,103.956124 C91.9389588,104.149207 91.1630102,103.687037 90.9686057,102.923154 L89.0438576,95.2360494 C88.8508541,94.4718112 89.3128351,93.6955445 90.0764048,93.5010603 L99.9056519,91.0189228 C100.141724,90.9588228 100.390937,91.0446254 100.540038,91.2373389 C100.689139,91.4300523 100.709688,91.692916 100.592346,91.906475 L98.0360399,96.6100002 C97.8815589,96.8901531 97.9689561,97.2420713 98.2365345,97.4173217 L102.722601,100.340728 C102.927753,100.474627 103.03324,100.718079 102.990671,100.959403 C102.948102,101.200727 102.765692,101.393352 102.527119,101.448915 Z" id="Path" fill="#52D2BC" fill-rule="nonzero"></path>
                    <path d="M128.504381,83.5251486 L138.29848,81.0428062 C139.059633,80.8526453 139.831262,81.313695 140.027439,82.0758619 L141.956277,89.7385268 C142.148688,90.5028281 141.688125,91.2791588 140.926897,91.4736591 L131.1278,93.9810757 C130.892452,94.0411806 130.644004,93.9553709 130.49536,93.7626415 C130.346716,93.5699122 130.326231,93.3070268 130.443213,93.0934502 L132.991677,88.3895367 C133.145685,88.1093607 133.058556,87.7574135 132.791798,87.5821486 L128.294507,84.6585009 C128.076835,84.5252022 127.963785,84.2708617 128.010376,84.0192619 C128.056967,83.7676621 128.253522,83.5710642 128.504381,83.5251486 Z" id="Path" fill="#52D2BC" fill-rule="nonzero"></path>
                    <path d="M98.1946456,98.2206285 L102.719075,101.231388 C102.924876,101.367735 103.031996,101.616781 102.991559,101.864896 C102.951122,102.113012 102.770881,102.312635 102.533071,102.372687 L92.6798691,104.954813 C91.9136917,105.153665 91.1354552,104.677685 90.9404774,103.890977 L89,96" id="Path" stroke="#6535FF" stroke-width="1.65" stroke-linecap="round" stroke-linejoin="round"></path>
                    <path d="M141,93.5665734 L130.896907,95.9825312 C130.655593,96.038818 130.401559,95.9565227 130.248812,95.7725783 C130.096065,95.5886339 130.073295,95.337591 130.190722,95.1321141 L132.819588,90.5949453 C132.977871,90.3264449 132.887856,89.9889279 132.613402,89.8218388 L128,87" id="Path" stroke="#6535FF" stroke-width="1.65" stroke-linecap="round" stroke-linejoin="round"></path>
                    <path d="M103,110 L119,118" id="Path" stroke="#BBC4EF" stroke-width="1.65" stroke-linecap="round" stroke-linejoin="round"></path>
                    <path d="M267.242239,105.550425 L273.741715,85.0732615 C274.336779,83.1935657 273.887292,81.1390166 272.56181,79.6800579 L258.087977,63.8006254 C256.762114,62.3418228 254.757602,61.7043737 252.833401,62.1296328 L231.835094,66.7323669 C229.909418,67.1514017 228.354994,68.5694595 227.760423,70.4495749 L221.260947,90.9317415 C220.661419,92.8096416 221.111499,94.8649975 222.440852,96.3199421 L236.909685,112.199375 C238.235549,113.658177 240.240061,114.295626 242.164261,113.870367 L263.162568,109.267633 C265.090154,108.8502 266.64679,107.431865 267.242239,105.550425 Z" id="Path" fill="#6534FF" fill-rule="nonzero" opacity="0.32"></path>
                    <path d="M268.238245,103.550425 L274.737862,83.0732615 C275.339346,81.1938635 274.889139,79.1360673 273.557932,77.6800579 L259.088784,61.8006254 C257.762891,60.3418228 255.758336,59.7043737 253.834093,60.1296328 L232.83533,64.7323669 C230.909612,65.1514017 229.355154,66.5694595 228.76057,68.4495749 L222.260952,88.9317415 C221.661411,90.8096416 222.111502,92.8649975 223.440883,94.3199421 L237.910031,110.199375 C239.235923,111.658177 241.240479,112.295626 243.164722,111.870367 L264.163485,107.267633 C266.089203,106.848598 267.643661,105.43054 268.238245,103.550425 Z" id="Path" fill="#FCCDD3" fill-rule="nonzero"></path>
                    <path d="M274.737868,81.8432957 C275.339338,79.9814181 274.889141,77.9428054 273.557964,76.5003694 L259.08914,60.7838393 C257.763277,59.3386362 255.758766,58.7071296 253.834567,59.1284243 L232.836273,63.6882501 C230.910598,64.1033786 229.356174,65.5082168 228.761604,67.3708051 L222.262132,87.6570737 C221.660662,89.5189513 222.110859,91.557564 223.442036,93" id="Path" stroke="#6535FF" stroke-width="1.51" stroke-linecap="round" stroke-linejoin="round"></path>
                    <polygon id="Path" fill="#FFFFFF" fill-rule="nonzero" points="262.252877 94.6689687 265.599969 91.6201657 264.627743 87.198895 266 82.8839779 262.951665 79.5414365 261.979438 75.1201657 257.670247 73.747698 254.616848 70.4000921 250.196256 71.3724678 245.887065 70 242.539972 73.0488029 238.11938 74.0211786 236.747123 78.3310313 233.405094 81.3848987 234.372257 85.8061694 233 90.1160221 236.053399 93.463628 237.020562 97.8848987 241.334817 99.2573665 244.383152 102.599908 248.803744 101.632597 253.117999 103 256.460028 99.9511971 260.88062 98.9838858"></polygon>
                    <polyline id="Path" stroke="#6535FF" stroke-width="1.51" stroke-linecap="round" stroke-linejoin="round" points="265 81.7728532 261.951665 78.4541205 260.979438 74.0709834 256.670247 72.715374 253.616848 69.3966413 249.196256 70.3606302 244.887065 69 241.539972 72.0225069 237.11938 72.9814751 235.747123 77.2591759 232.405094 80.2816828 233.372257 84.6648199 232 88.9425208 235.053399 92.2562327 236.020562 96.6393698 240.334817 98"></polyline>
                    <circle id="Oval" fill="#62BCF9" fill-rule="nonzero" cx="249.5" cy="85.5" r="6.5"></circle>
                    <path d="M244.020293,90 C242.097257,86.9874831 242.97126,82.9972854 245.9801,81.0526451 C248.98894,79.1080048 253.01149,79.9335158 255,82.9037162" id="Path" stroke="#6535FF" stroke-width="1.51" stroke-linecap="round" stroke-linejoin="round"></path>
                    <path d="M274.534522,77.9984957 L260.002478,62.2778589 C259.502121,61.7415665 258.899872,61.3074005 258.22991,61 C257.600406,61.6670925 257.060368,62.4111673 256.623049,63.2139649 C255.146746,65.9380828 254.765117,69.1079655 254.684774,72.1936481 C254.604431,75.2793307 254.790224,78.3848251 254.343316,81.4407901 C253.728753,85.6363272 251.943205,89.5805727 249.186298,92.8325559 C245.59597,97.0475092 240.494188,99.9400271 237.446174,104.551216 C236.884648,105.40561 236.400711,106.307245 236,107.245616 L238.746727,110.217381 C240.078383,111.661596 242.091652,112.29267 244.024259,111.871664 L265.114302,107.314957 C267.048391,106.900113 268.609607,105.496236 269.206775,103.634922 L275.734645,83.3625315 C276.344576,81.4918791 275.885991,79.4422044 274.534522,77.9984957 L274.534522,77.9984957 Z" id="Path" fill="#6534FF" fill-rule="nonzero" opacity="0.32"></path>
                    <path d="M245,110 L264,106" id="Path" stroke="#6535FF" stroke-width="1.51" stroke-linecap="round" stroke-linejoin="round"></path>
                    <path d="M234.000336,182.159392 L234.097698,169.734749 C234.100404,169.271254 234.29753,168.827836 234.645561,168.502377 C234.993592,168.176918 235.46391,167.996181 235.952696,168.000061 L246.170559,168.072947 C246.659354,168.075513 247.126976,168.262436 247.4702,168.592453 C247.813424,168.92247 248.004028,169.368444 247.999935,169.831931 L247.902574,182.256574 C247.898518,182.553788 247.710494,182.820941 247.422604,182.938536 C247.134715,183.056131 246.800814,183.00217 246.570255,182.80079 L241.517691,178.311009 C241.215334,178.046146 240.749067,178.046146 240.446711,178.311009 L235.322407,182.732763 C235.088644,182.935966 234.749311,182.986742 234.46092,182.861669 C234.172528,182.736596 233.991108,182.459974 234.000336,182.159392 Z" id="Path" fill="#3E1EC4" fill-rule="nonzero"></path>
                    <path d="M50.0008305,185.423139 L50.0607578,177.15159 C50.0633956,176.843578 50.190629,176.54921 50.4144656,176.333251 C50.6383023,176.117291 50.9404049,175.997432 51.2543087,176.000042 L57.8263294,176.044144 C58.1411079,176.046725 58.4418704,176.172245 58.662105,176.392943 C58.8823395,176.613642 59.0039002,176.911337 58.9999045,177.220193 L58.9399773,185.486842 C58.9497966,185.690819 58.8296728,185.879388 58.6385042,185.960092 C58.4473356,186.040795 58.2252026,185.996712 58.0810202,185.849457 L54.8349613,182.860331 C54.6420464,182.679879 54.3387129,182.679879 54.145798,182.860331 L50.8497998,185.800455 C50.7026479,185.942643 50.4814787,185.981285 50.2933529,185.897674 C50.1052272,185.814063 49.9889592,185.625452 50.0008305,185.423139 Z" id="Path" fill="#3E1EC4" fill-rule="nonzero"></path>
                    <path d="M222.000831,54.4231392 L222.060758,46.1515903 C222.063396,45.843578 222.190629,45.5492104 222.414466,45.3332508 C222.638302,45.1172912 222.940405,44.9974315 223.254309,45.0000418 L229.826329,45.0441436 C230.141108,45.0467253 230.44187,45.1722446 230.662105,45.3929435 C230.88234,45.6136424 231.0039,45.9113368 230.999905,46.2201932 L230.939977,54.4868419 C230.949797,54.690819 230.829673,54.8793883 230.638504,54.9600915 C230.447336,55.0407948 230.225203,54.9967119 230.08102,54.8494571 L226.834961,51.8603311 C226.642046,51.6798789 226.338713,51.6798789 226.145798,51.8603311 L222.8498,54.8004551 C222.702648,54.9426434 222.481479,54.9812847 222.293353,54.8976741 C222.105227,54.8140635 221.988959,54.6254516 222.000831,54.4231392 Z" id="Path-Copy-2" fill="#62BCFA" fill-rule="nonzero"></path>
                    <path d="M113.000336,30.1593923 L113.097698,17.7347493 C113.100404,17.2712539 113.29753,16.8278358 113.645561,16.5023771 C113.993592,16.1769184 114.46391,15.9961808 114.952696,16.0000612 L125.170559,16.0729473 C125.659354,16.0755132 126.126976,16.2624357 126.4702,16.5924527 C126.813424,16.9224696 127.004028,17.3684445 126.999935,17.8319307 L126.902574,30.2565737 C126.898518,30.5537882 126.710494,30.8209413 126.422604,30.9385363 C126.134715,31.0561313 125.800814,31.0021702 125.570255,30.8007896 L120.517691,26.3110086 C120.215334,26.0461458 119.749067,26.0461458 119.446711,26.3110086 L114.322407,30.7327626 C114.088644,30.9359665 113.749311,30.9867415 113.46092,30.8616685 C113.172528,30.7365955 112.991108,30.4599744 113.000336,30.1593923 Z" id="Path" fill="#6534FF" fill-rule="nonzero"></path>
                    <path d="M0.00033624446,71.1593923 L0.0976980251,58.7347493 C0.100404031,58.2712539 0.297529762,57.8278358 0.645560799,57.5023771 C0.993591835,57.1769184 1.46391036,56.9961808 1.95269616,57.0000612 L12.1705588,57.0729473 C12.6593543,57.0755132 13.1269765,57.2624357 13.4702005,57.5924527 C13.8134244,57.9224696 14.0040276,58.3684445 13.9999354,58.8319307 L13.9025737,71.2565737 C13.8985177,71.5537882 13.7104936,71.8209413 13.4226041,71.9385363 C13.1347145,72.0561313 12.8008138,72.0021702 12.5702546,71.8007896 L7.51769057,67.3110086 C7.21533417,67.0461458 6.74906738,67.0461458 6.44671098,67.3110086 L1.32240674,71.7327626 C1.08864447,71.9359665 0.749311403,71.9867415 0.460919562,71.8616685 C0.172527721,71.7365955 -0.00889245108,71.4599744 0.00033624446,71.1593923 Z" id="Path" fill="#62BCF9" fill-rule="nonzero"></path>
                    <circle id="Oval" fill="#BBC4EF" fill-rule="nonzero" cx="76" cy="138" r="16"></circle>
                    <circle id="Oval" fill="#52D2BC" fill-rule="nonzero" cx="87.5" cy="148.5" r="7.5"></circle>
                    <path d="M37.5788349,112 C31.7169929,100.576362 36.1839619,86.5641778 47.5764971,80.6388943 C58.9690323,74.7136109 73.0090958,79.1002456 79,90.456758" id="Path" stroke="#FCCDD3" stroke-width="3" stroke-linecap="round" stroke-linejoin="round"></path>
                    <g id="Group" opacity="0.61" transform="translate(51.000000, 114.000000)" fill="#6534FF" fill-rule="nonzero">
                        <path d="M24.675,10.825 C26.595,10.88 26.59,10.88 26.59,12.755 C26.59,13.9 26.54,15.045 26.615,16.185 C26.69,17.325 26.38,17.99 25.085,17.8 C24.8668881,17.7911838 24.6485294,17.8096603 24.435,17.855 C24.0387576,17.704792 23.6012424,17.704792 23.205,17.855 L22.79,17.855 L19.705,17.63 C20.59,16.67 21.3,15.855 22.05,15.09 C22.55,14.56 22.675,14.145 22.08,13.56 C21.31,12.8 20.65,11.94 19.77,10.92 C20.48,10.92 20.94,10.92 21.405,10.92 C21.87,10.92 22.455,10.87 22.98,10.845 L24.675,10.845 L24.675,10.825 Z" id="Path"></path>
                        <path d="M2.37,17.785 C0.155,17.575 0.16,17.58 0.19,15.24 C0.19,14.41 0.19,13.58 0.19,12.74 C0.19,10.74 0.19,10.74 2.15,10.65 C2.50042118,10.8479878 2.91840041,10.8879684 3.3,10.76 C4.175,10.76 5.055,10.79 5.93,10.82 C6.175,10.82 6.5,10.74 6.61,11.06 C6.72,11.38 6.44,11.53 6.275,11.715 C5.815,12.24 5.365,12.785 4.855,13.265 C4.13,13.95 4.31,14.515 4.95,15.125 C5.70832473,15.771951 6.34499026,16.549157 6.83,17.42 C5.87,17.76 4.905,17.265 4.055,17.77 L3.555,17.77 C3.20491164,17.4978156 2.71308654,17.5040413 2.37,17.785 L2.37,17.785 Z" id="Path"></path>
                        <path d="M2.37,17.785 C2.71659737,17.5084568 3.20840263,17.5084568 3.555,17.785 C4.4,23.875 7.025,28.58 13.36,30.4 L13.36,31.68 C10.36,31.29 8.09,29.605 6.21,27.365 C3.915,24.585 2.84,21.3 2.37,17.785 Z" id="Path"></path>
                        <path d="M13.37,31.66 C13.37,31.235 13.37,30.805 13.37,30.38 C19.1,28.675 22.64,24.17 23.215,17.85 C23.6112424,17.699792 24.0487576,17.699792 24.445,17.85 C23.87,21.465 22.79,24.85 20.295,27.67 C18.42,29.76 16.22,31.28 13.37,31.66 Z" id="Path"></path>
                        <path d="M24.675,10.825 L23.41,10.825 C23.41,9.285 23.41,7.74 23.41,6.2 C23.41,3.91 22.255,2.7 19.86,2.495 L19.15,2.395 C19.15,1.765 18.605,1.935 18.28,1.825 C16.675,1.275 14.965,1.445 13.32,1.14 L13.32,0.325 C16.9375508,0.0872305613 20.5414854,0.959431583 23.65,2.825 C24.3251639,3.16131277 24.7229089,3.87924249 24.65,4.63 C24.625,6.695 24.67,8.76 24.675,10.825 Z" id="Path"></path>
                        <path d="M13.35,0.32 L13.35,1.135 C13.135,1.165 12.92,1.205 12.7,1.215 C9.91,1.35 7.2,1.845 4.74,3.215 C3.7955828,3.62644277 3.22408605,4.59980471 3.325,5.625 C3.41,7.33 3.325,9.045 3.325,10.755 L3.325,10.755 C2.94340041,10.8829684 2.52542118,10.8429878 2.175,10.645 C2.175,8.645 2.175,6.605 2.14,4.585 C2.06301668,3.87951322 2.42344424,3.19826552 3.05,2.865 C6.14245054,0.983709208 9.73723124,0.0954842667 13.35,0.32 Z" id="Path"></path>
                        <path d="M3.31,10.77 L3.31,10.77 C4.025,10.66 3.88,10.095 3.885,9.64 C3.885,8.275 3.945,6.91 3.885,5.55 C3.80820882,4.83755268 4.19449018,4.15552463 4.845,3.855 C6.33755301,3.00920363 7.96196277,2.42096784 9.65,2.115 C12.8202726,1.5722389 16.0669727,1.6674301 19.2,2.395 L19.91,2.495 C20.215,3.19 20.975,3.195 21.525,3.495 C22.555,4.04 23.12,4.67 23.025,5.96 C22.89,7.575 23.025,9.215 23.025,10.84 C22.5,10.865 21.975,10.9 21.45,10.915 C20.925,10.93 20.525,10.915 19.815,10.915 C20.695,11.915 21.355,12.795 22.125,13.555 C22.72,14.14 22.625,14.555 22.095,15.085 C21.345,15.85 20.635,16.665 19.75,17.625 L22.835,17.85 C22.215,21.75 20.945,25.35 17.645,27.8 C14.145,30.375 13.255,30.3 9.78,28.17 C9.03274402,27.6857507 8.35915723,27.0963622 7.78,26.42 C5.54,23.975 4.61,20.97 4.085,17.79 C4.935,17.29 5.9,17.79 6.86,17.44 C6.37499026,16.569157 5.73832473,15.791951 4.98,15.145 C4.34,14.535 4.16,13.97 4.885,13.285 C5.385,12.785 5.845,12.26 6.305,11.735 C6.47,11.55 6.745,11.38 6.64,11.08 C6.535,10.78 6.205,10.85 5.96,10.84 C5.065,10.8 4.185,10.79 3.31,10.77 Z" id="Path"></path>
                    </g>
                    <path d="M75.0271237,123 C76.9691916,123.054765 76.9641341,123.054765 76.9641341,124.921764 C76.9641341,126.061878 76.9135595,127.201991 76.9894215,128.337127 C77.0652835,129.472262 76.7517205,130.134424 75.4418361,129.945235 C75.2212174,129.936456 75.0003489,129.954854 74.7843652,130 C74.3835685,129.850433 73.9410247,129.850433 73.540228,130 L73.1204581,130 L70,129.77596 C70.8951719,128.820057 71.6133325,128.008535 72.3719527,127.246799 C72.8776996,126.719061 73.0041363,126.305832 72.4022975,125.723329 C71.6234474,124.966572 70.9558615,124.110242 70.0657471,123.094595 C70.7839076,123.094595 71.2491947,123.094595 71.7195393,123.094595 C72.1898839,123.094595 72.7816077,123.044808 73.3126419,123.019915 L75.0271237,123.019915 L75.0271237,123 Z" id="Path" fill="#52D2BC" fill-rule="nonzero"></path>
                    <path d="M52.3024962,130 C49.9695431,129.793973 49.9748094,129.798879 50.006407,127.503153 C50.006407,126.688858 50.006407,125.874562 50.006407,125.050456 C50.006407,123.088297 50.006407,123.088297 52.0707808,123 C52.4398626,123.194242 52.8801,123.233466 53.2820206,123.107919 C54.203616,123.107919 55.1304778,123.137351 56.0520732,123.166783 C56.31012,123.166783 56.6524269,123.088297 56.7682846,123.402242 C56.8841423,123.716188 56.5892317,123.86335 56.4154452,124.044849 C55.9309493,124.559916 55.4569859,125.094604 54.9198274,125.565522 C54.1562197,126.237561 54.345805,126.791871 55.0198863,127.390329 C55.8185933,128.025039 56.4891625,128.78754 57,129.641906 C55.9888781,129.975473 54.97249,129.489839 54.0772258,129.985284 L53.5505998,129.985284 C53.1818686,129.718249 52.6638528,129.724357 52.3024962,130 L52.3024962,130 Z" id="Path" fill="#52D2BC" fill-rule="nonzero"></path>
                    <path d="M52,130.205901 C52.3469127,129.931366 52.8391655,129.931366 53.1860783,130.205901 C54.0318471,136.251678 56.6592357,140.922511 63,142.729295 L63,144 C59.9972702,143.612832 57.7252047,141.940068 55.8434941,139.716334 C53.5464058,136.956522 52.4704277,133.695376 52,130.205901 Z" id="Path" fill="#FFFFFF" fill-rule="nonzero"></path>
                    <path d="M63,144 C63,143.572639 63,143.14025 63,142.712889 C68.6911964,140.998418 72.2072235,136.468391 72.7783296,130.113282 C73.1718886,129.962239 73.6064409,129.962239 74,130.113282 C73.4288939,133.748364 72.3562077,137.152169 69.8781038,139.987835 C68.0158014,142.089445 65.8306998,143.617889 63,144 Z" id="Path" fill="#FFFFFF" fill-rule="nonzero"></path>
                    <path d="M74,123 L72.7745487,123 C72.7745487,121.392537 72.7745487,119.779855 72.7745487,118.172392 C72.7745487,115.782073 71.6556583,114.519066 69.335535,114.305086 L68.6477323,114.200705 C68.6477323,113.543107 68.119771,113.720554 67.8049317,113.605735 C66.2501101,113.031641 64.5935711,113.209088 63,112.890727 L63,112.040024 C66.5044526,111.791839 69.9957147,112.702248 73.0070454,114.649542 C73.6611011,115.000588 74.0464111,115.749968 73.9757816,116.533614 C73.9515632,118.689076 73.9951563,120.844538 74,123 Z" id="Path" fill="#FFFFFF" fill-rule="nonzero"></path>
                    <path d="M63,112.035578 L63,112.885922 C62.789221,112.917223 62.5784419,112.958958 62.3627611,112.969392 C59.6275356,113.110246 56.9707395,113.626713 54.5590353,115.056126 C53.6331593,115.485412 53.0728825,116.500986 53.1718152,117.570642 C53.2551465,119.349583 53.1718152,121.138958 53.1718152,122.923116 L53.1718152,122.923116 C52.7977074,123.056634 52.3879341,123.01492 52.0443925,122.808346 C52.0443925,120.721611 52.0443925,118.593142 52.0100797,116.48554 C51.9346077,115.749458 52.2879592,115.038666 52.9022141,114.690948 C55.9339523,112.72807 59.4581587,111.801325 63,112.035578 L63,112.035578 Z" id="Path" fill="#FFFFFF" fill-rule="nonzero"></path>
                    <path d="M53,123.00727 L53,123.00727 C53.7249562,122.897203 53.5779371,122.331857 53.5830067,121.876579 C53.5830067,120.510743 53.6438422,119.144908 53.5830067,117.784075 C53.5051463,117.071192 53.8968065,116.388746 54.5563745,116.088038 C56.069711,115.241724 57.7167402,114.653128 59.428283,114.346973 C62.6427008,113.803879 65.9346105,113.899129 69.1112644,114.627144 L69.831151,114.727205 C70.140398,115.422631 70.9109809,115.427634 71.4686395,115.727817 C72.512982,116.273151 73.0858495,116.903537 72.9895266,118.194326 C72.8526468,119.810315 72.9895266,121.451319 72.9895266,123.077313 C72.4572161,123.102329 71.9249056,123.13735 71.3925951,123.152359 C70.8602846,123.167368 70.4547147,123.152359 69.7348281,123.152359 C70.6270819,124.152971 71.2962723,125.03351 72.0769943,125.793975 C72.6802796,126.379333 72.5839567,126.794587 72.0465766,127.324912 C71.286133,128.09038 70.5662464,128.905879 69.668923,129.866466 L72.7968809,130.091604 C72.1682476,133.993991 70.8805631,137.596195 67.5346114,140.047694 C63.9858748,142.624271 63.0834817,142.549225 59.5600932,140.417921 C58.8024318,139.933375 58.1194655,139.343626 57.5322437,138.66685 C55.2610522,136.220353 54.3181022,133.213514 53.7857917,130.031567 C54.6476277,129.531261 55.6260651,130.031567 56.5994329,129.681353 C56.1076695,128.809977 55.4621386,128.032295 54.6932543,127.384948 C54.0443425,126.774575 53.861836,126.209229 54.5969315,125.52381 C55.1038939,125.023504 55.5702993,124.498182 56.0367047,123.972861 C56.2040022,123.787748 56.4828315,123.617644 56.3763694,123.31746 C56.2699073,123.017277 55.9353122,123.087319 55.6869006,123.077313 C54.779438,123.037289 53.8871842,123.027283 53,123.00727 Z" id="Path" fill="#FCCDD3" fill-rule="nonzero"></path>
                    <path d="M197,166.952781 C200.920804,167.131679 214.869819,167.295669 227.833607,157.510931 C243.164957,145.952119 245.602893,129.185382 246,126" id="Path" stroke="#FFFFFF" stroke-width="3" stroke-linecap="round" stroke-linejoin="round" stroke-dasharray="9"></path>
                    <polygon id="Path" fill="#E8EDF6" fill-rule="nonzero" points="119.75 140 113.25 140 110 145.5 113.25 151 119.75 151 123 145.5"></polygon>
                    <polygon id="Path" fill="#FCCDD3" fill-rule="nonzero" points="304.24748 131 294.74748 131 290 139.00245 294.74748 147 304.24748 147 309 139.00245"></polygon>
                    <polygon id="Path" fill="#E8EDF6" fill-rule="nonzero" points="94.2474747 167 90.7474747 167 89 170 90.7474747 173 94.2474747 173 96 170"></polygon>
                    <polygon id="Path" fill="#E8EDF6" fill-rule="nonzero" points="304.247475 119 300.747475 119 299 122 300.747475 125 304.247475 125 306 122"></polygon>
                    <polygon id="Path" fill="#F9879A" fill-rule="nonzero" points="278.247475 148 274.747475 148 273 151 274.747475 154 278.247475 154 280 151"></polygon>
                    <polygon id="Path-Copy" fill="#F9879A" fill-rule="nonzero" points="241.247475 35 237.747475 35 236 38 237.747475 41 241.247475 41 243 38"></polygon>
                </g>
            </g>
        </g>
    </g>
</svg>