<?xml version="1.0" encoding="UTF-8"?>
<svg width="40px" height="40px" viewBox="0 0 40 40" version="1.1" xmlns="http://www.w3.org/2000/svg" xmlns:xlink="http://www.w3.org/1999/xlink">
    <!-- Generator: Sketch 54.1 (76490) - https://sketchapp.com -->
    <title>Fill 1</title>
    <desc>Created with Sketch.</desc>
    <g id="app-Mobile" stroke="none" stroke-width="1" fill="none" fill-rule="evenodd">
        <g id="d-08" transform="translate(-701.000000, -577.000000)" fill="#6534FF">
            <g id="social" transform="translate(613.000000, 577.000000)">
                <path d="M107.999963,0 C96.9543112,0 88,8.95423624 88,19.9999625 L88,19.9999625 C88,31.0456888 96.9543112,40 107.999963,40 L107.999963,40 C119.045689,40 128,31.0456888 128,19.9999625 L128,19.9999625 C128,8.95423624 119.045689,0 107.999963,0 Z M95.9991307,20.6973507 C95.9991307,20.6973507 95.2247795,20.422622 95.1498399,19.82318 L95.1498399,19.82318 C95.0748253,19.2236629 96.0240856,18.8987997 96.0240856,18.8987997 L96.0240856,18.8987997 L116.082951,11.0301388 C116.082951,11.0301388 117.731697,10.3057724 117.731697,11.5048064 L117.731697,11.5048064 L114.159475,29.5152718 C114.159475,29.5152718 113.659853,30.7642905 112.285985,30.1647735 L112.285985,30.1647735 L107.202755,26.2676132 L107.203354,26.2680628 L103.942731,29.2408428 C103.942731,29.2408428 103.687861,29.434262 103.409011,29.3130097 L103.409011,29.3130097 L104.067655,23.6949358 C104.067655,23.6949358 113.21029,15.4766067 113.584988,15.1269384 L113.584988,15.1269384 C113.959686,14.7771202 113.834762,14.7021806 113.834762,14.7021806 L113.834762,14.7021806 C113.859717,14.2775726 113.160305,14.7021806 113.160305,14.7021806 L113.160305,14.7021806 L101.045041,22.3960822 L95.9991307,20.6973507 Z" id="Fill-1"></path>
            </g>
        </g>
    </g>
</svg>