<?xml version="1.0" encoding="UTF-8"?>
<svg width="40px" height="40px" viewBox="0 0 40 40" version="1.1" xmlns="http://www.w3.org/2000/svg" xmlns:xlink="http://www.w3.org/1999/xlink">
    <!-- Generator: Sketch 54.1 (76490) - https://sketchapp.com -->
    <title>Fill 1 Copy</title>
    <desc>Created with Sketch.</desc>
    <g id="app-Mobile" stroke="none" stroke-width="1" fill="none" fill-rule="evenodd">
        <g id="d-08" transform="translate(-789.000000, -577.000000)" fill="#6534FF">
            <g id="social" transform="translate(613.000000, 577.000000)">
                <path d="M206.278426,16.1492047 C206.287957,16.3584451 206.292227,16.5687991 206.292227,16.7801654 C206.292227,23.2292664 201.476922,30.6666667 192.671418,30.6666667 C189.967532,30.6666667 187.452,29.8587575 185.333333,28.4744501 C185.707957,28.5194971 186.089035,28.5420711 186.475277,28.5420711 C188.718255,28.5420711 190.782213,27.762 192.421007,26.4528046 C190.325376,26.4131228 188.558199,25.0019897 187.948851,23.062947 C188.240369,23.1198378 188.540326,23.1510163 188.848723,23.1510163 C189.285504,23.1510163 189.708681,23.090785 190.110709,22.9793318 C187.920355,22.5317981 186.270043,20.5584388 186.270043,18.1944366 C186.270043,18.1730773 186.270043,18.152629 186.271135,18.1321807 C186.916326,18.4981238 187.654156,18.7180945 188.439248,18.7427944 C187.154227,17.8682766 186.308965,16.3735283 186.308965,14.6801685 C186.308965,13.7863159 186.545773,12.9482405 186.957333,12.2271859 C189.31817,15.1802401 192.84617,17.1225221 196.824752,17.3263974 C196.742638,16.9690588 196.700539,16.5966371 196.700539,16.2135863 C196.700539,13.5191724 198.844525,11.3333333 201.48844,11.3333333 C202.865106,11.3333333 204.10922,11.9266369 204.98278,12.8752544 C206.073291,12.6563972 207.097277,12.2496588 208.022468,11.6906719 C207.664624,12.8302074 206.905745,13.7863159 205.917404,14.390451 C206.885787,14.2724179 207.808794,14.0106395 208.666667,13.6221224 C208.025645,14.6008049 207.21305,15.4603409 206.278426,16.1492047 M196,0 C184.9543,0 176,8.9543 176,20 C176,31.0457 184.9543,40 196,40 C207.0457,40 216,31.0457 216,20 C216,8.9543 207.0457,0 196,0" id="Fill-1-Copy"></path>
            </g>
        </g>
    </g>
</svg>